<?xml version="1.0" encoding="utf-8" standalone="no"?>
<!DOCTYPE svg PUBLIC "-//W3C//DTD SVG 1.1//EN"
  "http://www.w3.org/Graphics/SVG/1.1/DTD/svg11.dtd">
<!-- Created with matplotlib (https://matplotlib.org/) -->
<svg height="648pt" version="1.1" viewBox="0 0 1152 648" width="1152pt" xmlns="http://www.w3.org/2000/svg" xmlns:xlink="http://www.w3.org/1999/xlink">
 <defs>
  <style type="text/css">
*{stroke-linecap:butt;stroke-linejoin:round;}
  </style>
 </defs>
 <g id="figure_1">
  <g id="patch_1">
   <path d="M 0 648 
L 1152 648 
L 1152 0 
L 0 0 
z
" style="fill:#ffffff;"/>
  </g>
  <g id="axes_1">
   <g id="patch_2">
    <path d="M 144 576.72 
L 1036.8 576.72 
L 1036.8 77.76 
L 144 77.76 
z
" style="fill:#ffffff;"/>
   </g>
   <g id="PathCollection_1">
    <defs>
     <path d="M 0 3 
C 0.795609 3 1.55874 2.683901 2.12132 2.12132 
C 2.683901 1.55874 3 0.795609 3 0 
C 3 -0.795609 2.683901 -1.55874 2.12132 -2.12132 
C 1.55874 -2.683901 0.795609 -3 0 -3 
C -0.795609 -3 -1.55874 -2.683901 -2.12132 -2.12132 
C -2.683901 -1.55874 -3 -0.795609 -3 0 
C -3 0.795609 -2.683901 1.55874 -2.12132 2.12132 
C -1.55874 2.683901 -0.795609 3 0 3 
z
" id="m15e8793e9f" style="stroke:#8000ff;stroke-opacity:0.7;"/>
    </defs>
    <g clip-path="url(#p3e9dc08273)">
     <use style="fill:#8000ff;fill-opacity:0.7;stroke:#8000ff;stroke-opacity:0.7;" x="636.249598" xlink:href="#m15e8793e9f" y="379.742336"/>
     <use style="fill:#8000ff;fill-opacity:0.7;stroke:#8000ff;stroke-opacity:0.7;" x="583.257513" xlink:href="#m15e8793e9f" y="274.124946"/>
     <use style="fill:#8000ff;fill-opacity:0.7;stroke:#8000ff;stroke-opacity:0.7;" x="945.603385" xlink:href="#m15e8793e9f" y="554.038706"/>
     <use style="fill:#8000ff;fill-opacity:0.7;stroke:#8000ff;stroke-opacity:0.7;" x="899.161013" xlink:href="#m15e8793e9f" y="526.107977"/>
     <use style="fill:#8000ff;fill-opacity:0.7;stroke:#8000ff;stroke-opacity:0.7;" x="841.22648" xlink:href="#m15e8793e9f" y="469.858361"/>
     <use style="fill:#8000ff;fill-opacity:0.7;stroke:#8000ff;stroke-opacity:0.7;" x="755.760877" xlink:href="#m15e8793e9f" y="419.651925"/>
     <use style="fill:#8000ff;fill-opacity:0.7;stroke:#8000ff;stroke-opacity:0.7;" x="316.396414" xlink:href="#m15e8793e9f" y="382.177867"/>
     <use style="fill:#8000ff;fill-opacity:0.7;stroke:#8000ff;stroke-opacity:0.7;" x="292.731956" xlink:href="#m15e8793e9f" y="501.032202"/>
     <use style="fill:#8000ff;fill-opacity:0.7;stroke:#8000ff;stroke-opacity:0.7;" x="421.932154" xlink:href="#m15e8793e9f" y="490.089121"/>
     <use style="fill:#8000ff;fill-opacity:0.7;stroke:#8000ff;stroke-opacity:0.7;" x="828.361005" xlink:href="#m15e8793e9f" y="214.641156"/>
     <use style="fill:#8000ff;fill-opacity:0.7;stroke:#8000ff;stroke-opacity:0.7;" x="881.476841" xlink:href="#m15e8793e9f" y="292.803061"/>
     <use style="fill:#8000ff;fill-opacity:0.7;stroke:#8000ff;stroke-opacity:0.7;" x="453.573313" xlink:href="#m15e8793e9f" y="344.49359"/>
     <use style="fill:#8000ff;fill-opacity:0.7;stroke:#8000ff;stroke-opacity:0.7;" x="531.850347" xlink:href="#m15e8793e9f" y="449.979552"/>
     <use style="fill:#8000ff;fill-opacity:0.7;stroke:#8000ff;stroke-opacity:0.7;" x="217.302984" xlink:href="#m15e8793e9f" y="191.161254"/>
     <use style="fill:#8000ff;fill-opacity:0.7;stroke:#8000ff;stroke-opacity:0.7;" x="184.583652" xlink:href="#m15e8793e9f" y="460.845238"/>
     <use style="fill:#8000ff;fill-opacity:0.7;stroke:#8000ff;stroke-opacity:0.7;" x="362.741624" xlink:href="#m15e8793e9f" y="194.856805"/>
     <use style="fill:#8000ff;fill-opacity:0.7;stroke:#8000ff;stroke-opacity:0.7;" x="706.835868" xlink:href="#m15e8793e9f" y="324.972551"/>
     <use style="fill:#8000ff;fill-opacity:0.7;stroke:#8000ff;stroke-opacity:0.7;" x="996.216348" xlink:href="#m15e8793e9f" y="366.606624"/>
     <use style="fill:#8000ff;fill-opacity:0.7;stroke:#8000ff;stroke-opacity:0.7;" x="547.552282" xlink:href="#m15e8793e9f" y="185.564164"/>
     <use style="fill:#8000ff;fill-opacity:0.7;stroke:#8000ff;stroke-opacity:0.7;" x="438.764939" xlink:href="#m15e8793e9f" y="158.535512"/>
     <use style="fill:#8000ff;fill-opacity:0.7;stroke:#8000ff;stroke-opacity:0.7;" x="310.330605" xlink:href="#m15e8793e9f" y="297.049339"/>
     <use style="fill:#8000ff;fill-opacity:0.7;stroke:#8000ff;stroke-opacity:0.7;" x="482.782417" xlink:href="#m15e8793e9f" y="227.695323"/>
     <use style="fill:#8000ff;fill-opacity:0.7;stroke:#8000ff;stroke-opacity:0.7;" x="447.886089" xlink:href="#m15e8793e9f" y="277.264837"/>
     <use style="fill:#8000ff;fill-opacity:0.7;stroke:#8000ff;stroke-opacity:0.7;" x="284.742867" xlink:href="#m15e8793e9f" y="136.988897"/>
     <use style="fill:#8000ff;fill-opacity:0.7;stroke:#8000ff;stroke-opacity:0.7;" x="553.567072" xlink:href="#m15e8793e9f" y="124.536914"/>
     <use style="fill:#8000ff;fill-opacity:0.7;stroke:#8000ff;stroke-opacity:0.7;" x="641.041884" xlink:href="#m15e8793e9f" y="223.249849"/>
     <use style="fill:#8000ff;fill-opacity:0.7;stroke:#8000ff;stroke-opacity:0.7;" x="408.009826" xlink:href="#m15e8793e9f" y="100.441294"/>
     <use style="fill:#8000ff;fill-opacity:0.7;stroke:#8000ff;stroke-opacity:0.7;" x="203.201151" xlink:href="#m15e8793e9f" y="251.457985"/>
     <use style="fill:#8000ff;fill-opacity:0.7;stroke:#8000ff;stroke-opacity:0.7;" x="344.805122" xlink:href="#m15e8793e9f" y="241.925114"/>
     <use style="fill:#8000ff;fill-opacity:0.7;stroke:#8000ff;stroke-opacity:0.7;" x="677.050029" xlink:href="#m15e8793e9f" y="155.864176"/>
    </g>
   </g>
   <g id="matplotlib.axis_1">
    <g id="xtick_1">
     <g id="line2d_1">
      <path clip-path="url(#p3e9dc08273)" d="M 286.039297 576.72 
L 286.039297 77.76 
" style="fill:none;stroke:#b0b0b0;stroke-linecap:square;stroke-width:0.8;"/>
     </g>
     <g id="line2d_2">
      <defs>
       <path d="M 0 0 
L 0 3.5 
" id="m2c706c3d3b" style="stroke:#000000;stroke-width:0.8;"/>
      </defs>
      <g>
       <use style="stroke:#000000;stroke-width:0.8;" x="286.039297" xlink:href="#m2c706c3d3b" y="576.72"/>
      </g>
     </g>
     <g id="text_1">
      <!-- −200 -->
      <defs>
       <path d="M 10.59375 35.5 
L 73.1875 35.5 
L 73.1875 27.203125 
L 10.59375 27.203125 
z
" id="DejaVuSans-8722"/>
       <path d="M 19.1875 8.296875 
L 53.609375 8.296875 
L 53.609375 0 
L 7.328125 0 
L 7.328125 8.296875 
Q 12.9375 14.109375 22.625 23.890625 
Q 32.328125 33.6875 34.8125 36.53125 
Q 39.546875 41.84375 41.421875 45.53125 
Q 43.3125 49.21875 43.3125 52.78125 
Q 43.3125 58.59375 39.234375 62.25 
Q 35.15625 65.921875 28.609375 65.921875 
Q 23.96875 65.921875 18.8125 64.3125 
Q 13.671875 62.703125 7.8125 59.421875 
L 7.8125 69.390625 
Q 13.765625 71.78125 18.9375 73 
Q 24.125 74.21875 28.421875 74.21875 
Q 39.75 74.21875 46.484375 68.546875 
Q 53.21875 62.890625 53.21875 53.421875 
Q 53.21875 48.921875 51.53125 44.890625 
Q 49.859375 40.875 45.40625 35.40625 
Q 44.1875 33.984375 37.640625 27.21875 
Q 31.109375 20.453125 19.1875 8.296875 
z
" id="DejaVuSans-50"/>
       <path d="M 31.78125 66.40625 
Q 24.171875 66.40625 20.328125 58.90625 
Q 16.5 51.421875 16.5 36.375 
Q 16.5 21.390625 20.328125 13.890625 
Q 24.171875 6.390625 31.78125 6.390625 
Q 39.453125 6.390625 43.28125 13.890625 
Q 47.125 21.390625 47.125 36.375 
Q 47.125 51.421875 43.28125 58.90625 
Q 39.453125 66.40625 31.78125 66.40625 
z
M 31.78125 74.21875 
Q 44.046875 74.21875 50.515625 64.515625 
Q 56.984375 54.828125 56.984375 36.375 
Q 56.984375 17.96875 50.515625 8.265625 
Q 44.046875 -1.421875 31.78125 -1.421875 
Q 19.53125 -1.421875 13.0625 8.265625 
Q 6.59375 17.96875 6.59375 36.375 
Q 6.59375 54.828125 13.0625 64.515625 
Q 19.53125 74.21875 31.78125 74.21875 
z
" id="DejaVuSans-48"/>
      </defs>
      <g transform="translate(272.305703 591.318438)scale(0.1 -0.1)">
       <use xlink:href="#DejaVuSans-8722"/>
       <use x="83.789062" xlink:href="#DejaVuSans-50"/>
       <use x="147.412109" xlink:href="#DejaVuSans-48"/>
       <use x="211.035156" xlink:href="#DejaVuSans-48"/>
      </g>
     </g>
    </g>
    <g id="xtick_2">
     <g id="line2d_3">
      <path clip-path="url(#p3e9dc08273)" d="M 437.602979 576.72 
L 437.602979 77.76 
" style="fill:none;stroke:#b0b0b0;stroke-linecap:square;stroke-width:0.8;"/>
     </g>
     <g id="line2d_4">
      <g>
       <use style="stroke:#000000;stroke-width:0.8;" x="437.602979" xlink:href="#m2c706c3d3b" y="576.72"/>
      </g>
     </g>
     <g id="text_2">
      <!-- 0 -->
      <g transform="translate(434.421729 591.318438)scale(0.1 -0.1)">
       <use xlink:href="#DejaVuSans-48"/>
      </g>
     </g>
    </g>
    <g id="xtick_3">
     <g id="line2d_5">
      <path clip-path="url(#p3e9dc08273)" d="M 589.16666 576.72 
L 589.16666 77.76 
" style="fill:none;stroke:#b0b0b0;stroke-linecap:square;stroke-width:0.8;"/>
     </g>
     <g id="line2d_6">
      <g>
       <use style="stroke:#000000;stroke-width:0.8;" x="589.16666" xlink:href="#m2c706c3d3b" y="576.72"/>
      </g>
     </g>
     <g id="text_3">
      <!-- 200 -->
      <g transform="translate(579.62291 591.318438)scale(0.1 -0.1)">
       <use xlink:href="#DejaVuSans-50"/>
       <use x="63.623047" xlink:href="#DejaVuSans-48"/>
       <use x="127.246094" xlink:href="#DejaVuSans-48"/>
      </g>
     </g>
    </g>
    <g id="xtick_4">
     <g id="line2d_7">
      <path clip-path="url(#p3e9dc08273)" d="M 740.730342 576.72 
L 740.730342 77.76 
" style="fill:none;stroke:#b0b0b0;stroke-linecap:square;stroke-width:0.8;"/>
     </g>
     <g id="line2d_8">
      <g>
       <use style="stroke:#000000;stroke-width:0.8;" x="740.730342" xlink:href="#m2c706c3d3b" y="576.72"/>
      </g>
     </g>
     <g id="text_4">
      <!-- 400 -->
      <defs>
       <path d="M 37.796875 64.3125 
L 12.890625 25.390625 
L 37.796875 25.390625 
z
M 35.203125 72.90625 
L 47.609375 72.90625 
L 47.609375 25.390625 
L 58.015625 25.390625 
L 58.015625 17.1875 
L 47.609375 17.1875 
L 47.609375 0 
L 37.796875 0 
L 37.796875 17.1875 
L 4.890625 17.1875 
L 4.890625 26.703125 
z
" id="DejaVuSans-52"/>
      </defs>
      <g transform="translate(731.186592 591.318438)scale(0.1 -0.1)">
       <use xlink:href="#DejaVuSans-52"/>
       <use x="63.623047" xlink:href="#DejaVuSans-48"/>
       <use x="127.246094" xlink:href="#DejaVuSans-48"/>
      </g>
     </g>
    </g>
    <g id="xtick_5">
     <g id="line2d_9">
      <path clip-path="url(#p3e9dc08273)" d="M 892.294024 576.72 
L 892.294024 77.76 
" style="fill:none;stroke:#b0b0b0;stroke-linecap:square;stroke-width:0.8;"/>
     </g>
     <g id="line2d_10">
      <g>
       <use style="stroke:#000000;stroke-width:0.8;" x="892.294024" xlink:href="#m2c706c3d3b" y="576.72"/>
      </g>
     </g>
     <g id="text_5">
      <!-- 600 -->
      <defs>
       <path d="M 33.015625 40.375 
Q 26.375 40.375 22.484375 35.828125 
Q 18.609375 31.296875 18.609375 23.390625 
Q 18.609375 15.53125 22.484375 10.953125 
Q 26.375 6.390625 33.015625 6.390625 
Q 39.65625 6.390625 43.53125 10.953125 
Q 47.40625 15.53125 47.40625 23.390625 
Q 47.40625 31.296875 43.53125 35.828125 
Q 39.65625 40.375 33.015625 40.375 
z
M 52.59375 71.296875 
L 52.59375 62.3125 
Q 48.875 64.0625 45.09375 64.984375 
Q 41.3125 65.921875 37.59375 65.921875 
Q 27.828125 65.921875 22.671875 59.328125 
Q 17.53125 52.734375 16.796875 39.40625 
Q 19.671875 43.65625 24.015625 45.921875 
Q 28.375 48.1875 33.59375 48.1875 
Q 44.578125 48.1875 50.953125 41.515625 
Q 57.328125 34.859375 57.328125 23.390625 
Q 57.328125 12.15625 50.6875 5.359375 
Q 44.046875 -1.421875 33.015625 -1.421875 
Q 20.359375 -1.421875 13.671875 8.265625 
Q 6.984375 17.96875 6.984375 36.375 
Q 6.984375 53.65625 15.1875 63.9375 
Q 23.390625 74.21875 37.203125 74.21875 
Q 40.921875 74.21875 44.703125 73.484375 
Q 48.484375 72.75 52.59375 71.296875 
z
" id="DejaVuSans-54"/>
      </defs>
      <g transform="translate(882.750274 591.318438)scale(0.1 -0.1)">
       <use xlink:href="#DejaVuSans-54"/>
       <use x="63.623047" xlink:href="#DejaVuSans-48"/>
       <use x="127.246094" xlink:href="#DejaVuSans-48"/>
      </g>
     </g>
    </g>
   </g>
   <g id="matplotlib.axis_2">
    <g id="ytick_1">
     <g id="line2d_11">
      <path clip-path="url(#p3e9dc08273)" d="M 144 570.288324 
L 1036.8 570.288324 
" style="fill:none;stroke:#b0b0b0;stroke-linecap:square;stroke-width:0.8;"/>
     </g>
     <g id="line2d_12">
      <defs>
       <path d="M 0 0 
L -3.5 0 
" id="meebdea89dc" style="stroke:#000000;stroke-width:0.8;"/>
      </defs>
      <g>
       <use style="stroke:#000000;stroke-width:0.8;" x="144" xlink:href="#meebdea89dc" y="570.288324"/>
      </g>
     </g>
     <g id="text_6">
      <!-- −1000 -->
      <defs>
       <path d="M 12.40625 8.296875 
L 28.515625 8.296875 
L 28.515625 63.921875 
L 10.984375 60.40625 
L 10.984375 69.390625 
L 28.421875 72.90625 
L 38.28125 72.90625 
L 38.28125 8.296875 
L 54.390625 8.296875 
L 54.390625 0 
L 12.40625 0 
z
" id="DejaVuSans-49"/>
      </defs>
      <g transform="translate(103.170312 574.087543)scale(0.1 -0.1)">
       <use xlink:href="#DejaVuSans-8722"/>
       <use x="83.789062" xlink:href="#DejaVuSans-49"/>
       <use x="147.412109" xlink:href="#DejaVuSans-48"/>
       <use x="211.035156" xlink:href="#DejaVuSans-48"/>
       <use x="274.658203" xlink:href="#DejaVuSans-48"/>
      </g>
     </g>
    </g>
    <g id="ytick_2">
     <g id="line2d_13">
      <path clip-path="url(#p3e9dc08273)" d="M 144 510.517737 
L 1036.8 510.517737 
" style="fill:none;stroke:#b0b0b0;stroke-linecap:square;stroke-width:0.8;"/>
     </g>
     <g id="line2d_14">
      <g>
       <use style="stroke:#000000;stroke-width:0.8;" x="144" xlink:href="#meebdea89dc" y="510.517737"/>
      </g>
     </g>
     <g id="text_7">
      <!-- −800 -->
      <defs>
       <path d="M 31.78125 34.625 
Q 24.75 34.625 20.71875 30.859375 
Q 16.703125 27.09375 16.703125 20.515625 
Q 16.703125 13.921875 20.71875 10.15625 
Q 24.75 6.390625 31.78125 6.390625 
Q 38.8125 6.390625 42.859375 10.171875 
Q 46.921875 13.96875 46.921875 20.515625 
Q 46.921875 27.09375 42.890625 30.859375 
Q 38.875 34.625 31.78125 34.625 
z
M 21.921875 38.8125 
Q 15.578125 40.375 12.03125 44.71875 
Q 8.5 49.078125 8.5 55.328125 
Q 8.5 64.0625 14.71875 69.140625 
Q 20.953125 74.21875 31.78125 74.21875 
Q 42.671875 74.21875 48.875 69.140625 
Q 55.078125 64.0625 55.078125 55.328125 
Q 55.078125 49.078125 51.53125 44.71875 
Q 48 40.375 41.703125 38.8125 
Q 48.828125 37.15625 52.796875 32.3125 
Q 56.78125 27.484375 56.78125 20.515625 
Q 56.78125 9.90625 50.3125 4.234375 
Q 43.84375 -1.421875 31.78125 -1.421875 
Q 19.734375 -1.421875 13.25 4.234375 
Q 6.78125 9.90625 6.78125 20.515625 
Q 6.78125 27.484375 10.78125 32.3125 
Q 14.796875 37.15625 21.921875 38.8125 
z
M 18.3125 54.390625 
Q 18.3125 48.734375 21.84375 45.5625 
Q 25.390625 42.390625 31.78125 42.390625 
Q 38.140625 42.390625 41.71875 45.5625 
Q 45.3125 48.734375 45.3125 54.390625 
Q 45.3125 60.0625 41.71875 63.234375 
Q 38.140625 66.40625 31.78125 66.40625 
Q 25.390625 66.40625 21.84375 63.234375 
Q 18.3125 60.0625 18.3125 54.390625 
z
" id="DejaVuSans-56"/>
      </defs>
      <g transform="translate(109.532813 514.316956)scale(0.1 -0.1)">
       <use xlink:href="#DejaVuSans-8722"/>
       <use x="83.789062" xlink:href="#DejaVuSans-56"/>
       <use x="147.412109" xlink:href="#DejaVuSans-48"/>
       <use x="211.035156" xlink:href="#DejaVuSans-48"/>
      </g>
     </g>
    </g>
    <g id="ytick_3">
     <g id="line2d_15">
      <path clip-path="url(#p3e9dc08273)" d="M 144 450.74715 
L 1036.8 450.74715 
" style="fill:none;stroke:#b0b0b0;stroke-linecap:square;stroke-width:0.8;"/>
     </g>
     <g id="line2d_16">
      <g>
       <use style="stroke:#000000;stroke-width:0.8;" x="144" xlink:href="#meebdea89dc" y="450.74715"/>
      </g>
     </g>
     <g id="text_8">
      <!-- −600 -->
      <g transform="translate(109.532813 454.546369)scale(0.1 -0.1)">
       <use xlink:href="#DejaVuSans-8722"/>
       <use x="83.789062" xlink:href="#DejaVuSans-54"/>
       <use x="147.412109" xlink:href="#DejaVuSans-48"/>
       <use x="211.035156" xlink:href="#DejaVuSans-48"/>
      </g>
     </g>
    </g>
    <g id="ytick_4">
     <g id="line2d_17">
      <path clip-path="url(#p3e9dc08273)" d="M 144 390.976563 
L 1036.8 390.976563 
" style="fill:none;stroke:#b0b0b0;stroke-linecap:square;stroke-width:0.8;"/>
     </g>
     <g id="line2d_18">
      <g>
       <use style="stroke:#000000;stroke-width:0.8;" x="144" xlink:href="#meebdea89dc" y="390.976563"/>
      </g>
     </g>
     <g id="text_9">
      <!-- −400 -->
      <g transform="translate(109.532813 394.775782)scale(0.1 -0.1)">
       <use xlink:href="#DejaVuSans-8722"/>
       <use x="83.789062" xlink:href="#DejaVuSans-52"/>
       <use x="147.412109" xlink:href="#DejaVuSans-48"/>
       <use x="211.035156" xlink:href="#DejaVuSans-48"/>
      </g>
     </g>
    </g>
    <g id="ytick_5">
     <g id="line2d_19">
      <path clip-path="url(#p3e9dc08273)" d="M 144 331.205976 
L 1036.8 331.205976 
" style="fill:none;stroke:#b0b0b0;stroke-linecap:square;stroke-width:0.8;"/>
     </g>
     <g id="line2d_20">
      <g>
       <use style="stroke:#000000;stroke-width:0.8;" x="144" xlink:href="#meebdea89dc" y="331.205976"/>
      </g>
     </g>
     <g id="text_10">
      <!-- −200 -->
      <g transform="translate(109.532813 335.005195)scale(0.1 -0.1)">
       <use xlink:href="#DejaVuSans-8722"/>
       <use x="83.789062" xlink:href="#DejaVuSans-50"/>
       <use x="147.412109" xlink:href="#DejaVuSans-48"/>
       <use x="211.035156" xlink:href="#DejaVuSans-48"/>
      </g>
     </g>
    </g>
    <g id="ytick_6">
     <g id="line2d_21">
      <path clip-path="url(#p3e9dc08273)" d="M 144 271.435389 
L 1036.8 271.435389 
" style="fill:none;stroke:#b0b0b0;stroke-linecap:square;stroke-width:0.8;"/>
     </g>
     <g id="line2d_22">
      <g>
       <use style="stroke:#000000;stroke-width:0.8;" x="144" xlink:href="#meebdea89dc" y="271.435389"/>
      </g>
     </g>
     <g id="text_11">
      <!-- 0 -->
      <g transform="translate(130.6375 275.234608)scale(0.1 -0.1)">
       <use xlink:href="#DejaVuSans-48"/>
      </g>
     </g>
    </g>
    <g id="ytick_7">
     <g id="line2d_23">
      <path clip-path="url(#p3e9dc08273)" d="M 144 211.664802 
L 1036.8 211.664802 
" style="fill:none;stroke:#b0b0b0;stroke-linecap:square;stroke-width:0.8;"/>
     </g>
     <g id="line2d_24">
      <g>
       <use style="stroke:#000000;stroke-width:0.8;" x="144" xlink:href="#meebdea89dc" y="211.664802"/>
      </g>
     </g>
     <g id="text_12">
      <!-- 200 -->
      <g transform="translate(117.9125 215.464021)scale(0.1 -0.1)">
       <use xlink:href="#DejaVuSans-50"/>
       <use x="63.623047" xlink:href="#DejaVuSans-48"/>
       <use x="127.246094" xlink:href="#DejaVuSans-48"/>
      </g>
     </g>
    </g>
    <g id="ytick_8">
     <g id="line2d_25">
      <path clip-path="url(#p3e9dc08273)" d="M 144 151.894215 
L 1036.8 151.894215 
" style="fill:none;stroke:#b0b0b0;stroke-linecap:square;stroke-width:0.8;"/>
     </g>
     <g id="line2d_26">
      <g>
       <use style="stroke:#000000;stroke-width:0.8;" x="144" xlink:href="#meebdea89dc" y="151.894215"/>
      </g>
     </g>
     <g id="text_13">
      <!-- 400 -->
      <g transform="translate(117.9125 155.693434)scale(0.1 -0.1)">
       <use xlink:href="#DejaVuSans-52"/>
       <use x="63.623047" xlink:href="#DejaVuSans-48"/>
       <use x="127.246094" xlink:href="#DejaVuSans-48"/>
      </g>
     </g>
    </g>
    <g id="ytick_9">
     <g id="line2d_27">
      <path clip-path="url(#p3e9dc08273)" d="M 144 92.123628 
L 1036.8 92.123628 
" style="fill:none;stroke:#b0b0b0;stroke-linecap:square;stroke-width:0.8;"/>
     </g>
     <g id="line2d_28">
      <g>
       <use style="stroke:#000000;stroke-width:0.8;" x="144" xlink:href="#meebdea89dc" y="92.123628"/>
      </g>
     </g>
     <g id="text_14">
      <!-- 600 -->
      <g transform="translate(117.9125 95.922846)scale(0.1 -0.1)">
       <use xlink:href="#DejaVuSans-54"/>
       <use x="63.623047" xlink:href="#DejaVuSans-48"/>
       <use x="127.246094" xlink:href="#DejaVuSans-48"/>
      </g>
     </g>
    </g>
   </g>
   <g id="patch_3">
    <path d="M 144 576.72 
L 144 77.76 
" style="fill:none;stroke:#000000;stroke-linecap:square;stroke-linejoin:miter;stroke-width:0.8;"/>
   </g>
   <g id="patch_4">
    <path d="M 1036.8 576.72 
L 1036.8 77.76 
" style="fill:none;stroke:#000000;stroke-linecap:square;stroke-linejoin:miter;stroke-width:0.8;"/>
   </g>
   <g id="patch_5">
    <path d="M 144 576.72 
L 1036.8 576.72 
" style="fill:none;stroke:#000000;stroke-linecap:square;stroke-linejoin:miter;stroke-width:0.8;"/>
   </g>
   <g id="patch_6">
    <path d="M 144 77.76 
L 1036.8 77.76 
" style="fill:none;stroke:#000000;stroke-linecap:square;stroke-linejoin:miter;stroke-width:0.8;"/>
   </g>
   <g id="text_15">
    <!-- spss -->
    <defs>
     <path d="M 44.28125 53.078125 
L 44.28125 44.578125 
Q 40.484375 46.53125 36.375 47.5 
Q 32.28125 48.484375 27.875 48.484375 
Q 21.1875 48.484375 17.84375 46.4375 
Q 14.5 44.390625 14.5 40.28125 
Q 14.5 37.15625 16.890625 35.375 
Q 19.28125 33.59375 26.515625 31.984375 
L 29.59375 31.296875 
Q 39.15625 29.25 43.1875 25.515625 
Q 47.21875 21.78125 47.21875 15.09375 
Q 47.21875 7.46875 41.1875 3.015625 
Q 35.15625 -1.421875 24.609375 -1.421875 
Q 20.21875 -1.421875 15.453125 -0.5625 
Q 10.6875 0.296875 5.421875 2 
L 5.421875 11.28125 
Q 10.40625 8.6875 15.234375 7.390625 
Q 20.0625 6.109375 24.8125 6.109375 
Q 31.15625 6.109375 34.5625 8.28125 
Q 37.984375 10.453125 37.984375 14.40625 
Q 37.984375 18.0625 35.515625 20.015625 
Q 33.0625 21.96875 24.703125 23.78125 
L 21.578125 24.515625 
Q 13.234375 26.265625 9.515625 29.90625 
Q 5.8125 33.546875 5.8125 39.890625 
Q 5.8125 47.609375 11.28125 51.796875 
Q 16.75 56 26.8125 56 
Q 31.78125 56 36.171875 55.265625 
Q 40.578125 54.546875 44.28125 53.078125 
z
" id="DejaVuSans-115"/>
     <path d="M 18.109375 8.203125 
L 18.109375 -20.796875 
L 9.078125 -20.796875 
L 9.078125 54.6875 
L 18.109375 54.6875 
L 18.109375 46.390625 
Q 20.953125 51.265625 25.265625 53.625 
Q 29.59375 56 35.59375 56 
Q 45.5625 56 51.78125 48.09375 
Q 58.015625 40.1875 58.015625 27.296875 
Q 58.015625 14.40625 51.78125 6.484375 
Q 45.5625 -1.421875 35.59375 -1.421875 
Q 29.59375 -1.421875 25.265625 0.953125 
Q 20.953125 3.328125 18.109375 8.203125 
z
M 48.6875 27.296875 
Q 48.6875 37.203125 44.609375 42.84375 
Q 40.53125 48.484375 33.40625 48.484375 
Q 26.265625 48.484375 22.1875 42.84375 
Q 18.109375 37.203125 18.109375 27.296875 
Q 18.109375 17.390625 22.1875 11.75 
Q 26.265625 6.109375 33.40625 6.109375 
Q 40.53125 6.109375 44.609375 11.75 
Q 48.6875 17.390625 48.6875 27.296875 
z
" id="DejaVuSans-112"/>
    </defs>
    <g style="opacity:0.5;" transform="translate(610.48241 374.830773)scale(0.14 -0.14)">
     <use xlink:href="#DejaVuSans-115"/>
     <use x="52.099609" xlink:href="#DejaVuSans-112"/>
     <use x="115.576172" xlink:href="#DejaVuSans-115"/>
     <use x="167.675781" xlink:href="#DejaVuSans-115"/>
    </g>
   </g>
   <g id="text_16">
    <!-- ttests -->
    <defs>
     <path d="M 18.3125 70.21875 
L 18.3125 54.6875 
L 36.8125 54.6875 
L 36.8125 47.703125 
L 18.3125 47.703125 
L 18.3125 18.015625 
Q 18.3125 11.328125 20.140625 9.421875 
Q 21.96875 7.515625 27.59375 7.515625 
L 36.8125 7.515625 
L 36.8125 0 
L 27.59375 0 
Q 17.1875 0 13.234375 3.875 
Q 9.28125 7.765625 9.28125 18.015625 
L 9.28125 47.703125 
L 2.6875 47.703125 
L 2.6875 54.6875 
L 9.28125 54.6875 
L 9.28125 70.21875 
z
" id="DejaVuSans-116"/>
     <path d="M 56.203125 29.59375 
L 56.203125 25.203125 
L 14.890625 25.203125 
Q 15.484375 15.921875 20.484375 11.0625 
Q 25.484375 6.203125 34.421875 6.203125 
Q 39.59375 6.203125 44.453125 7.46875 
Q 49.3125 8.734375 54.109375 11.28125 
L 54.109375 2.78125 
Q 49.265625 0.734375 44.1875 -0.34375 
Q 39.109375 -1.421875 33.890625 -1.421875 
Q 20.796875 -1.421875 13.15625 6.1875 
Q 5.515625 13.8125 5.515625 26.8125 
Q 5.515625 40.234375 12.765625 48.109375 
Q 20.015625 56 32.328125 56 
Q 43.359375 56 49.78125 48.890625 
Q 56.203125 41.796875 56.203125 29.59375 
z
M 47.21875 32.234375 
Q 47.125 39.59375 43.09375 43.984375 
Q 39.0625 48.390625 32.421875 48.390625 
Q 24.90625 48.390625 20.390625 44.140625 
Q 15.875 39.890625 15.1875 32.171875 
z
" id="DejaVuSans-101"/>
    </defs>
    <g style="opacity:0.5;" transform="translate(548.591575 269.213383)scale(0.14 -0.14)">
     <use xlink:href="#DejaVuSans-116"/>
     <use x="39.208984" xlink:href="#DejaVuSans-116"/>
     <use x="78.417969" xlink:href="#DejaVuSans-101"/>
     <use x="139.941406" xlink:href="#DejaVuSans-115"/>
     <use x="192.041016" xlink:href="#DejaVuSans-116"/>
     <use x="231.25" xlink:href="#DejaVuSans-115"/>
    </g>
   </g>
   <g id="text_17">
    <!-- quantitative -->
    <defs>
     <path d="M 14.796875 27.296875 
Q 14.796875 17.390625 18.875 11.75 
Q 22.953125 6.109375 30.078125 6.109375 
Q 37.203125 6.109375 41.296875 11.75 
Q 45.40625 17.390625 45.40625 27.296875 
Q 45.40625 37.203125 41.296875 42.84375 
Q 37.203125 48.484375 30.078125 48.484375 
Q 22.953125 48.484375 18.875 42.84375 
Q 14.796875 37.203125 14.796875 27.296875 
z
M 45.40625 8.203125 
Q 42.578125 3.328125 38.25 0.953125 
Q 33.9375 -1.421875 27.875 -1.421875 
Q 17.96875 -1.421875 11.734375 6.484375 
Q 5.515625 14.40625 5.515625 27.296875 
Q 5.515625 40.1875 11.734375 48.09375 
Q 17.96875 56 27.875 56 
Q 33.9375 56 38.25 53.625 
Q 42.578125 51.265625 45.40625 46.390625 
L 45.40625 54.6875 
L 54.390625 54.6875 
L 54.390625 -20.796875 
L 45.40625 -20.796875 
z
" id="DejaVuSans-113"/>
     <path d="M 8.5 21.578125 
L 8.5 54.6875 
L 17.484375 54.6875 
L 17.484375 21.921875 
Q 17.484375 14.15625 20.5 10.265625 
Q 23.53125 6.390625 29.59375 6.390625 
Q 36.859375 6.390625 41.078125 11.03125 
Q 45.3125 15.671875 45.3125 23.6875 
L 45.3125 54.6875 
L 54.296875 54.6875 
L 54.296875 0 
L 45.3125 0 
L 45.3125 8.40625 
Q 42.046875 3.421875 37.71875 1 
Q 33.40625 -1.421875 27.6875 -1.421875 
Q 18.265625 -1.421875 13.375 4.4375 
Q 8.5 10.296875 8.5 21.578125 
z
M 31.109375 56 
z
" id="DejaVuSans-117"/>
     <path d="M 34.28125 27.484375 
Q 23.390625 27.484375 19.1875 25 
Q 14.984375 22.515625 14.984375 16.5 
Q 14.984375 11.71875 18.140625 8.90625 
Q 21.296875 6.109375 26.703125 6.109375 
Q 34.1875 6.109375 38.703125 11.40625 
Q 43.21875 16.703125 43.21875 25.484375 
L 43.21875 27.484375 
z
M 52.203125 31.203125 
L 52.203125 0 
L 43.21875 0 
L 43.21875 8.296875 
Q 40.140625 3.328125 35.546875 0.953125 
Q 30.953125 -1.421875 24.3125 -1.421875 
Q 15.921875 -1.421875 10.953125 3.296875 
Q 6 8.015625 6 15.921875 
Q 6 25.140625 12.171875 29.828125 
Q 18.359375 34.515625 30.609375 34.515625 
L 43.21875 34.515625 
L 43.21875 35.40625 
Q 43.21875 41.609375 39.140625 45 
Q 35.0625 48.390625 27.6875 48.390625 
Q 23 48.390625 18.546875 47.265625 
Q 14.109375 46.140625 10.015625 43.890625 
L 10.015625 52.203125 
Q 14.9375 54.109375 19.578125 55.046875 
Q 24.21875 56 28.609375 56 
Q 40.484375 56 46.34375 49.84375 
Q 52.203125 43.703125 52.203125 31.203125 
z
" id="DejaVuSans-97"/>
     <path d="M 54.890625 33.015625 
L 54.890625 0 
L 45.90625 0 
L 45.90625 32.71875 
Q 45.90625 40.484375 42.875 44.328125 
Q 39.84375 48.1875 33.796875 48.1875 
Q 26.515625 48.1875 22.3125 43.546875 
Q 18.109375 38.921875 18.109375 30.90625 
L 18.109375 0 
L 9.078125 0 
L 9.078125 54.6875 
L 18.109375 54.6875 
L 18.109375 46.1875 
Q 21.34375 51.125 25.703125 53.5625 
Q 30.078125 56 35.796875 56 
Q 45.21875 56 50.046875 50.171875 
Q 54.890625 44.34375 54.890625 33.015625 
z
" id="DejaVuSans-110"/>
     <path d="M 9.421875 54.6875 
L 18.40625 54.6875 
L 18.40625 0 
L 9.421875 0 
z
M 9.421875 75.984375 
L 18.40625 75.984375 
L 18.40625 64.59375 
L 9.421875 64.59375 
z
" id="DejaVuSans-105"/>
     <path d="M 2.984375 54.6875 
L 12.5 54.6875 
L 29.59375 8.796875 
L 46.6875 54.6875 
L 56.203125 54.6875 
L 35.6875 0 
L 23.484375 0 
z
" id="DejaVuSans-118"/>
    </defs>
    <g style="opacity:0.5;" transform="translate(865.667135 549.127144)scale(0.14 -0.14)">
     <use xlink:href="#DejaVuSans-113"/>
     <use x="63.476562" xlink:href="#DejaVuSans-117"/>
     <use x="126.855469" xlink:href="#DejaVuSans-97"/>
     <use x="188.134766" xlink:href="#DejaVuSans-110"/>
     <use x="251.513672" xlink:href="#DejaVuSans-116"/>
     <use x="290.722656" xlink:href="#DejaVuSans-105"/>
     <use x="318.505859" xlink:href="#DejaVuSans-116"/>
     <use x="357.714844" xlink:href="#DejaVuSans-97"/>
     <use x="418.994141" xlink:href="#DejaVuSans-116"/>
     <use x="458.203125" xlink:href="#DejaVuSans-105"/>
     <use x="485.986328" xlink:href="#DejaVuSans-118"/>
     <use x="545.166016" xlink:href="#DejaVuSans-101"/>
    </g>
   </g>
   <g id="text_18">
    <!-- statistics -->
    <defs>
     <path d="M 48.78125 52.59375 
L 48.78125 44.1875 
Q 44.96875 46.296875 41.140625 47.34375 
Q 37.3125 48.390625 33.40625 48.390625 
Q 24.65625 48.390625 19.8125 42.84375 
Q 14.984375 37.3125 14.984375 27.296875 
Q 14.984375 17.28125 19.8125 11.734375 
Q 24.65625 6.203125 33.40625 6.203125 
Q 37.3125 6.203125 41.140625 7.25 
Q 44.96875 8.296875 48.78125 10.40625 
L 48.78125 2.09375 
Q 45.015625 0.34375 40.984375 -0.53125 
Q 36.96875 -1.421875 32.421875 -1.421875 
Q 20.0625 -1.421875 12.78125 6.34375 
Q 5.515625 14.109375 5.515625 27.296875 
Q 5.515625 40.671875 12.859375 48.328125 
Q 20.21875 56 33.015625 56 
Q 37.15625 56 41.109375 55.140625 
Q 45.0625 54.296875 48.78125 52.59375 
z
" id="DejaVuSans-99"/>
    </defs>
    <g style="opacity:0.5;" transform="translate(841.760388 521.196415)scale(0.14 -0.14)">
     <use xlink:href="#DejaVuSans-115"/>
     <use x="52.099609" xlink:href="#DejaVuSans-116"/>
     <use x="91.308594" xlink:href="#DejaVuSans-97"/>
     <use x="152.587891" xlink:href="#DejaVuSans-116"/>
     <use x="191.796875" xlink:href="#DejaVuSans-105"/>
     <use x="219.580078" xlink:href="#DejaVuSans-115"/>
     <use x="271.679688" xlink:href="#DejaVuSans-116"/>
     <use x="310.888672" xlink:href="#DejaVuSans-105"/>
     <use x="338.671875" xlink:href="#DejaVuSans-99"/>
     <use x="393.652344" xlink:href="#DejaVuSans-115"/>
    </g>
   </g>
   <g id="text_19">
    <!-- statistical -->
    <defs>
     <path d="M 9.421875 75.984375 
L 18.40625 75.984375 
L 18.40625 0 
L 9.421875 0 
z
" id="DejaVuSans-108"/>
    </defs>
    <g style="opacity:0.5;" transform="translate(778.65023 464.946798)scale(0.14 -0.14)">
     <use xlink:href="#DejaVuSans-115"/>
     <use x="52.099609" xlink:href="#DejaVuSans-116"/>
     <use x="91.308594" xlink:href="#DejaVuSans-97"/>
     <use x="152.587891" xlink:href="#DejaVuSans-116"/>
     <use x="191.796875" xlink:href="#DejaVuSans-105"/>
     <use x="219.580078" xlink:href="#DejaVuSans-115"/>
     <use x="271.679688" xlink:href="#DejaVuSans-116"/>
     <use x="310.888672" xlink:href="#DejaVuSans-105"/>
     <use x="338.671875" xlink:href="#DejaVuSans-99"/>
     <use x="393.652344" xlink:href="#DejaVuSans-97"/>
     <use x="454.931641" xlink:href="#DejaVuSans-108"/>
    </g>
   </g>
   <g id="text_20">
    <!-- sas -->
    <g style="opacity:0.5;" transform="translate(737.595252 414.740363)scale(0.14 -0.14)">
     <use xlink:href="#DejaVuSans-115"/>
     <use x="52.099609" xlink:href="#DejaVuSans-97"/>
     <use x="113.378906" xlink:href="#DejaVuSans-115"/>
    </g>
   </g>
   <g id="text_21">
    <!-- vba -->
    <defs>
     <path d="M 48.6875 27.296875 
Q 48.6875 37.203125 44.609375 42.84375 
Q 40.53125 48.484375 33.40625 48.484375 
Q 26.265625 48.484375 22.1875 42.84375 
Q 18.109375 37.203125 18.109375 27.296875 
Q 18.109375 17.390625 22.1875 11.75 
Q 26.265625 6.109375 33.40625 6.109375 
Q 40.53125 6.109375 44.609375 11.75 
Q 48.6875 17.390625 48.6875 27.296875 
z
M 18.109375 46.390625 
Q 20.953125 51.265625 25.265625 53.625 
Q 29.59375 56 35.59375 56 
Q 45.5625 56 51.78125 48.09375 
Q 58.015625 40.1875 58.015625 27.296875 
Q 58.015625 14.40625 51.78125 6.484375 
Q 45.5625 -1.421875 35.59375 -1.421875 
Q 29.59375 -1.421875 25.265625 0.953125 
Q 20.953125 3.328125 18.109375 8.203125 
L 18.109375 0 
L 9.078125 0 
L 9.078125 75.984375 
L 18.109375 75.984375 
z
" id="DejaVuSans-98"/>
    </defs>
    <g style="opacity:0.5;" transform="translate(295.642976 377.266304)scale(0.14 -0.14)">
     <use xlink:href="#DejaVuSans-118"/>
     <use x="59.179688" xlink:href="#DejaVuSans-98"/>
     <use x="122.65625" xlink:href="#DejaVuSans-97"/>
    </g>
   </g>
   <g id="text_22">
    <!-- tableau -->
    <g style="opacity:0.5;" transform="translate(244.820706 496.12064)scale(0.14 -0.14)">
     <use xlink:href="#DejaVuSans-116"/>
     <use x="39.208984" xlink:href="#DejaVuSans-97"/>
     <use x="100.488281" xlink:href="#DejaVuSans-98"/>
     <use x="163.964844" xlink:href="#DejaVuSans-108"/>
     <use x="191.748047" xlink:href="#DejaVuSans-101"/>
     <use x="253.271484" xlink:href="#DejaVuSans-97"/>
     <use x="314.550781" xlink:href="#DejaVuSans-117"/>
    </g>
   </g>
   <g id="text_23">
    <!-- visualization -->
    <defs>
     <path d="M 5.515625 54.6875 
L 48.1875 54.6875 
L 48.1875 46.484375 
L 14.40625 7.171875 
L 48.1875 7.171875 
L 48.1875 0 
L 4.296875 0 
L 4.296875 8.203125 
L 38.09375 47.515625 
L 5.515625 47.515625 
z
" id="DejaVuSans-122"/>
     <path d="M 30.609375 48.390625 
Q 23.390625 48.390625 19.1875 42.75 
Q 14.984375 37.109375 14.984375 27.296875 
Q 14.984375 17.484375 19.15625 11.84375 
Q 23.34375 6.203125 30.609375 6.203125 
Q 37.796875 6.203125 41.984375 11.859375 
Q 46.1875 17.53125 46.1875 27.296875 
Q 46.1875 37.015625 41.984375 42.703125 
Q 37.796875 48.390625 30.609375 48.390625 
z
M 30.609375 56 
Q 42.328125 56 49.015625 48.375 
Q 55.71875 40.765625 55.71875 27.296875 
Q 55.71875 13.875 49.015625 6.21875 
Q 42.328125 -1.421875 30.609375 -1.421875 
Q 18.84375 -1.421875 12.171875 6.21875 
Q 5.515625 13.875 5.515625 27.296875 
Q 5.515625 40.765625 12.171875 48.375 
Q 18.84375 56 30.609375 56 
z
" id="DejaVuSans-111"/>
    </defs>
    <g style="opacity:0.5;" transform="translate(339.489029 485.177559)scale(0.14 -0.14)">
     <use xlink:href="#DejaVuSans-118"/>
     <use x="59.179688" xlink:href="#DejaVuSans-105"/>
     <use x="86.962891" xlink:href="#DejaVuSans-115"/>
     <use x="139.0625" xlink:href="#DejaVuSans-117"/>
     <use x="202.441406" xlink:href="#DejaVuSans-97"/>
     <use x="263.720703" xlink:href="#DejaVuSans-108"/>
     <use x="291.503906" xlink:href="#DejaVuSans-105"/>
     <use x="319.287109" xlink:href="#DejaVuSans-122"/>
     <use x="371.777344" xlink:href="#DejaVuSans-97"/>
     <use x="433.056641" xlink:href="#DejaVuSans-116"/>
     <use x="472.265625" xlink:href="#DejaVuSans-105"/>
     <use x="500.048828" xlink:href="#DejaVuSans-111"/>
     <use x="561.230469" xlink:href="#DejaVuSans-110"/>
    </g>
   </g>
   <g id="text_24">
    <!-- exploratory -->
    <defs>
     <path d="M 54.890625 54.6875 
L 35.109375 28.078125 
L 55.90625 0 
L 45.3125 0 
L 29.390625 21.484375 
L 13.484375 0 
L 2.875 0 
L 24.125 28.609375 
L 4.6875 54.6875 
L 15.28125 54.6875 
L 29.78125 35.203125 
L 44.28125 54.6875 
z
" id="DejaVuSans-120"/>
     <path d="M 41.109375 46.296875 
Q 39.59375 47.171875 37.8125 47.578125 
Q 36.03125 48 33.890625 48 
Q 26.265625 48 22.1875 43.046875 
Q 18.109375 38.09375 18.109375 28.8125 
L 18.109375 0 
L 9.078125 0 
L 9.078125 54.6875 
L 18.109375 54.6875 
L 18.109375 46.1875 
Q 20.953125 51.171875 25.484375 53.578125 
Q 30.03125 56 36.53125 56 
Q 37.453125 56 38.578125 55.875 
Q 39.703125 55.765625 41.0625 55.515625 
z
" id="DejaVuSans-114"/>
     <path d="M 32.171875 -5.078125 
Q 28.375 -14.84375 24.75 -17.8125 
Q 21.140625 -20.796875 15.09375 -20.796875 
L 7.90625 -20.796875 
L 7.90625 -13.28125 
L 13.1875 -13.28125 
Q 16.890625 -13.28125 18.9375 -11.515625 
Q 21 -9.765625 23.484375 -3.21875 
L 25.09375 0.875 
L 2.984375 54.6875 
L 12.5 54.6875 
L 29.59375 11.921875 
L 46.6875 54.6875 
L 56.203125 54.6875 
z
" id="DejaVuSans-121"/>
    </defs>
    <g style="opacity:0.5;" transform="translate(752.688192 209.729593)scale(0.14 -0.14)">
     <use xlink:href="#DejaVuSans-101"/>
     <use x="61.507812" xlink:href="#DejaVuSans-120"/>
     <use x="120.6875" xlink:href="#DejaVuSans-112"/>
     <use x="184.164062" xlink:href="#DejaVuSans-108"/>
     <use x="211.947266" xlink:href="#DejaVuSans-111"/>
     <use x="273.128906" xlink:href="#DejaVuSans-114"/>
     <use x="314.242188" xlink:href="#DejaVuSans-97"/>
     <use x="375.521484" xlink:href="#DejaVuSans-116"/>
     <use x="414.730469" xlink:href="#DejaVuSans-111"/>
     <use x="475.912109" xlink:href="#DejaVuSans-114"/>
     <use x="517.025391" xlink:href="#DejaVuSans-121"/>
    </g>
   </g>
   <g id="text_25">
    <!-- matlab -->
    <defs>
     <path d="M 52 44.1875 
Q 55.375 50.25 60.0625 53.125 
Q 64.75 56 71.09375 56 
Q 79.640625 56 84.28125 50.015625 
Q 88.921875 44.046875 88.921875 33.015625 
L 88.921875 0 
L 79.890625 0 
L 79.890625 32.71875 
Q 79.890625 40.578125 77.09375 44.375 
Q 74.3125 48.1875 68.609375 48.1875 
Q 61.625 48.1875 57.5625 43.546875 
Q 53.515625 38.921875 53.515625 30.90625 
L 53.515625 0 
L 44.484375 0 
L 44.484375 32.71875 
Q 44.484375 40.625 41.703125 44.40625 
Q 38.921875 48.1875 33.109375 48.1875 
Q 26.21875 48.1875 22.15625 43.53125 
Q 18.109375 38.875 18.109375 30.90625 
L 18.109375 0 
L 9.078125 0 
L 9.078125 54.6875 
L 18.109375 54.6875 
L 18.109375 46.1875 
Q 21.1875 51.21875 25.484375 53.609375 
Q 29.78125 56 35.6875 56 
Q 41.65625 56 45.828125 52.96875 
Q 50 49.953125 52 44.1875 
z
" id="DejaVuSans-109"/>
    </defs>
    <g style="opacity:0.5;" transform="translate(837.415591 287.891499)scale(0.14 -0.14)">
     <use xlink:href="#DejaVuSans-109"/>
     <use x="97.412109" xlink:href="#DejaVuSans-97"/>
     <use x="158.691406" xlink:href="#DejaVuSans-116"/>
     <use x="197.900391" xlink:href="#DejaVuSans-108"/>
     <use x="225.683594" xlink:href="#DejaVuSans-97"/>
     <use x="286.962891" xlink:href="#DejaVuSans-98"/>
    </g>
   </g>
   <g id="text_26">
    <!-- spotfire -->
    <defs>
     <path d="M 37.109375 75.984375 
L 37.109375 68.5 
L 28.515625 68.5 
Q 23.6875 68.5 21.796875 66.546875 
Q 19.921875 64.59375 19.921875 59.515625 
L 19.921875 54.6875 
L 34.71875 54.6875 
L 34.71875 47.703125 
L 19.921875 47.703125 
L 19.921875 0 
L 10.890625 0 
L 10.890625 47.703125 
L 2.296875 47.703125 
L 2.296875 54.6875 
L 10.890625 54.6875 
L 10.890625 58.5 
Q 10.890625 67.625 15.140625 71.796875 
Q 19.390625 75.984375 28.609375 75.984375 
z
" id="DejaVuSans-102"/>
    </defs>
    <g style="opacity:0.5;" transform="translate(405.154563 339.582028)scale(0.14 -0.14)">
     <use xlink:href="#DejaVuSans-115"/>
     <use x="52.099609" xlink:href="#DejaVuSans-112"/>
     <use x="115.576172" xlink:href="#DejaVuSans-111"/>
     <use x="176.757812" xlink:href="#DejaVuSans-116"/>
     <use x="215.966797" xlink:href="#DejaVuSans-102"/>
     <use x="251.171875" xlink:href="#DejaVuSans-105"/>
     <use x="278.955078" xlink:href="#DejaVuSans-114"/>
     <use x="320.037109" xlink:href="#DejaVuSans-101"/>
    </g>
   </g>
   <g id="text_27">
    <!-- manipulation -->
    <g style="opacity:0.5;" transform="translate(444.826597 445.067989)scale(0.14 -0.14)">
     <use xlink:href="#DejaVuSans-109"/>
     <use x="97.412109" xlink:href="#DejaVuSans-97"/>
     <use x="158.691406" xlink:href="#DejaVuSans-110"/>
     <use x="222.070312" xlink:href="#DejaVuSans-105"/>
     <use x="249.853516" xlink:href="#DejaVuSans-112"/>
     <use x="313.330078" xlink:href="#DejaVuSans-117"/>
     <use x="376.708984" xlink:href="#DejaVuSans-108"/>
     <use x="404.492188" xlink:href="#DejaVuSans-97"/>
     <use x="465.771484" xlink:href="#DejaVuSans-116"/>
     <use x="504.980469" xlink:href="#DejaVuSans-105"/>
     <use x="532.763672" xlink:href="#DejaVuSans-111"/>
     <use x="593.945312" xlink:href="#DejaVuSans-110"/>
    </g>
   </g>
   <g id="text_28">
    <!-- rapidminer -->
    <defs>
     <path d="M 45.40625 46.390625 
L 45.40625 75.984375 
L 54.390625 75.984375 
L 54.390625 0 
L 45.40625 0 
L 45.40625 8.203125 
Q 42.578125 3.328125 38.25 0.953125 
Q 33.9375 -1.421875 27.875 -1.421875 
Q 17.96875 -1.421875 11.734375 6.484375 
Q 5.515625 14.40625 5.515625 27.296875 
Q 5.515625 40.1875 11.734375 48.09375 
Q 17.96875 56 27.875 56 
Q 33.9375 56 38.25 53.625 
Q 42.578125 51.265625 45.40625 46.390625 
z
M 14.796875 27.296875 
Q 14.796875 17.390625 18.875 11.75 
Q 22.953125 6.109375 30.078125 6.109375 
Q 37.203125 6.109375 41.296875 11.75 
Q 45.40625 17.390625 45.40625 27.296875 
Q 45.40625 37.203125 41.296875 42.84375 
Q 37.203125 48.484375 30.078125 48.484375 
Q 22.953125 48.484375 18.875 42.84375 
Q 14.796875 37.203125 14.796875 27.296875 
z
" id="DejaVuSans-100"/>
    </defs>
    <g style="opacity:0.5;" transform="translate(145.534859 186.249692)scale(0.14 -0.14)">
     <use xlink:href="#DejaVuSans-114"/>
     <use x="41.113281" xlink:href="#DejaVuSans-97"/>
     <use x="102.392578" xlink:href="#DejaVuSans-112"/>
     <use x="165.869141" xlink:href="#DejaVuSans-105"/>
     <use x="193.652344" xlink:href="#DejaVuSans-100"/>
     <use x="257.128906" xlink:href="#DejaVuSans-109"/>
     <use x="354.541016" xlink:href="#DejaVuSans-105"/>
     <use x="382.324219" xlink:href="#DejaVuSans-110"/>
     <use x="445.703125" xlink:href="#DejaVuSans-101"/>
     <use x="507.226562" xlink:href="#DejaVuSans-114"/>
    </g>
   </g>
   <g id="text_29">
    <!-- sql -->
    <g style="opacity:0.5;" transform="translate(169.513339 455.933676)scale(0.14 -0.14)">
     <use xlink:href="#DejaVuSans-115"/>
     <use x="52.099609" xlink:href="#DejaVuSans-113"/>
     <use x="115.576172" xlink:href="#DejaVuSans-108"/>
    </g>
   </g>
   <g id="text_30">
    <!-- lisrel -->
    <g style="opacity:0.5;" transform="translate(334.415062 189.945242)scale(0.14 -0.14)">
     <use xlink:href="#DejaVuSans-108"/>
     <use x="27.783203" xlink:href="#DejaVuSans-105"/>
     <use x="55.566406" xlink:href="#DejaVuSans-115"/>
     <use x="107.666016" xlink:href="#DejaVuSans-114"/>
     <use x="148.748047" xlink:href="#DejaVuSans-101"/>
     <use x="210.271484" xlink:href="#DejaVuSans-108"/>
    </g>
   </g>
   <g id="text_31">
    <!-- stata -->
    <g style="opacity:0.5;" transform="translate(676.407118 320.060988)scale(0.14 -0.14)">
     <use xlink:href="#DejaVuSans-115"/>
     <use x="52.099609" xlink:href="#DejaVuSans-116"/>
     <use x="91.308594" xlink:href="#DejaVuSans-97"/>
     <use x="152.587891" xlink:href="#DejaVuSans-116"/>
     <use x="191.796875" xlink:href="#DejaVuSans-97"/>
    </g>
   </g>
   <g id="text_32">
    <!-- python -->
    <defs>
     <path d="M 54.890625 33.015625 
L 54.890625 0 
L 45.90625 0 
L 45.90625 32.71875 
Q 45.90625 40.484375 42.875 44.328125 
Q 39.84375 48.1875 33.796875 48.1875 
Q 26.515625 48.1875 22.3125 43.546875 
Q 18.109375 38.921875 18.109375 30.90625 
L 18.109375 0 
L 9.078125 0 
L 9.078125 75.984375 
L 18.109375 75.984375 
L 18.109375 46.1875 
Q 21.34375 51.125 25.703125 53.5625 
Q 30.078125 56 35.796875 56 
Q 45.21875 56 50.046875 50.171875 
Q 54.890625 44.34375 54.890625 33.015625 
z
" id="DejaVuSans-104"/>
    </defs>
    <g style="opacity:0.5;" transform="translate(952.242598 361.695061)scale(0.14 -0.14)">
     <use xlink:href="#DejaVuSans-112"/>
     <use x="63.476562" xlink:href="#DejaVuSans-121"/>
     <use x="122.65625" xlink:href="#DejaVuSans-116"/>
     <use x="161.865234" xlink:href="#DejaVuSans-104"/>
     <use x="225.244141" xlink:href="#DejaVuSans-111"/>
     <use x="286.425781" xlink:href="#DejaVuSans-110"/>
    </g>
   </g>
   <g id="text_33">
    <!-- ancova -->
    <g style="opacity:0.5;" transform="translate(501.970719 180.652602)scale(0.14 -0.14)">
     <use xlink:href="#DejaVuSans-97"/>
     <use x="61.279297" xlink:href="#DejaVuSans-110"/>
     <use x="124.658203" xlink:href="#DejaVuSans-99"/>
     <use x="179.638672" xlink:href="#DejaVuSans-111"/>
     <use x="240.820312" xlink:href="#DejaVuSans-118"/>
     <use x="300" xlink:href="#DejaVuSans-97"/>
    </g>
   </g>
   <g id="text_34">
    <!-- zoomdata -->
    <g style="opacity:0.5;" transform="translate(374.112752 153.623949)scale(0.14 -0.14)">
     <use xlink:href="#DejaVuSans-122"/>
     <use x="52.490234" xlink:href="#DejaVuSans-111"/>
     <use x="113.671875" xlink:href="#DejaVuSans-111"/>
     <use x="174.853516" xlink:href="#DejaVuSans-109"/>
     <use x="272.265625" xlink:href="#DejaVuSans-100"/>
     <use x="335.742188" xlink:href="#DejaVuSans-97"/>
     <use x="397.021484" xlink:href="#DejaVuSans-116"/>
     <use x="436.230469" xlink:href="#DejaVuSans-97"/>
    </g>
   </g>
   <g id="text_35">
    <!-- anova -->
    <g style="opacity:0.5;" transform="translate(272.446855 292.137777)scale(0.14 -0.14)">
     <use xlink:href="#DejaVuSans-97"/>
     <use x="61.279297" xlink:href="#DejaVuSans-110"/>
     <use x="124.658203" xlink:href="#DejaVuSans-111"/>
     <use x="185.839844" xlink:href="#DejaVuSans-118"/>
     <use x="245.019531" xlink:href="#DejaVuSans-97"/>
    </g>
   </g>
   <g id="text_36">
    <!-- arima -->
    <g style="opacity:0.5;" transform="translate(447.342105 222.783761)scale(0.14 -0.14)">
     <use xlink:href="#DejaVuSans-97"/>
     <use x="61.279297" xlink:href="#DejaVuSans-114"/>
     <use x="102.392578" xlink:href="#DejaVuSans-105"/>
     <use x="130.175781" xlink:href="#DejaVuSans-109"/>
     <use x="227.587891" xlink:href="#DejaVuSans-97"/>
    </g>
   </g>
   <g id="text_37">
    <!-- teredata -->
    <g style="opacity:0.5;" transform="translate(392.882964 272.353274)scale(0.14 -0.14)">
     <use xlink:href="#DejaVuSans-116"/>
     <use x="39.208984" xlink:href="#DejaVuSans-101"/>
     <use x="100.732422" xlink:href="#DejaVuSans-114"/>
     <use x="141.814453" xlink:href="#DejaVuSans-101"/>
     <use x="203.337891" xlink:href="#DejaVuSans-100"/>
     <use x="266.814453" xlink:href="#DejaVuSans-97"/>
     <use x="328.09375" xlink:href="#DejaVuSans-116"/>
     <use x="367.302734" xlink:href="#DejaVuSans-97"/>
    </g>
   </g>
   <g id="text_38">
    <!-- principalsblue -->
    <g style="opacity:0.5;" transform="translate(191.83693 132.077335)scale(0.14 -0.14)">
     <use xlink:href="#DejaVuSans-112"/>
     <use x="63.476562" xlink:href="#DejaVuSans-114"/>
     <use x="104.589844" xlink:href="#DejaVuSans-105"/>
     <use x="132.373047" xlink:href="#DejaVuSans-110"/>
     <use x="195.751953" xlink:href="#DejaVuSans-99"/>
     <use x="250.732422" xlink:href="#DejaVuSans-105"/>
     <use x="278.515625" xlink:href="#DejaVuSans-112"/>
     <use x="341.992188" xlink:href="#DejaVuSans-97"/>
     <use x="403.271484" xlink:href="#DejaVuSans-108"/>
     <use x="431.054688" xlink:href="#DejaVuSans-115"/>
     <use x="483.154297" xlink:href="#DejaVuSans-98"/>
     <use x="546.630859" xlink:href="#DejaVuSans-108"/>
     <use x="574.414062" xlink:href="#DejaVuSans-117"/>
     <use x="637.792969" xlink:href="#DejaVuSans-101"/>
    </g>
   </g>
   <g id="text_39">
    <!-- amos -->
    <g style="opacity:0.5;" transform="translate(520.491447 119.625351)scale(0.14 -0.14)">
     <use xlink:href="#DejaVuSans-97"/>
     <use x="61.279297" xlink:href="#DejaVuSans-109"/>
     <use x="158.691406" xlink:href="#DejaVuSans-111"/>
     <use x="219.873047" xlink:href="#DejaVuSans-115"/>
    </g>
   </g>
   <g id="text_40">
    <!-- stremsets -->
    <g style="opacity:0.5;" transform="translate(576.569071 218.338287)scale(0.14 -0.14)">
     <use xlink:href="#DejaVuSans-115"/>
     <use x="52.099609" xlink:href="#DejaVuSans-116"/>
     <use x="91.308594" xlink:href="#DejaVuSans-114"/>
     <use x="132.390625" xlink:href="#DejaVuSans-101"/>
     <use x="193.914062" xlink:href="#DejaVuSans-109"/>
     <use x="291.326172" xlink:href="#DejaVuSans-115"/>
     <use x="343.425781" xlink:href="#DejaVuSans-101"/>
     <use x="404.949219" xlink:href="#DejaVuSans-116"/>
     <use x="444.158203" xlink:href="#DejaVuSans-115"/>
    </g>
   </g>
   <g id="text_41">
    <!-- executionpenetration -->
    <g style="opacity:0.5;" transform="translate(262.487951 95.529731)scale(0.14 -0.14)">
     <use xlink:href="#DejaVuSans-101"/>
     <use x="61.507812" xlink:href="#DejaVuSans-120"/>
     <use x="120.640625" xlink:href="#DejaVuSans-101"/>
     <use x="182.164062" xlink:href="#DejaVuSans-99"/>
     <use x="237.144531" xlink:href="#DejaVuSans-117"/>
     <use x="300.523438" xlink:href="#DejaVuSans-116"/>
     <use x="339.732422" xlink:href="#DejaVuSans-105"/>
     <use x="367.515625" xlink:href="#DejaVuSans-111"/>
     <use x="428.697266" xlink:href="#DejaVuSans-110"/>
     <use x="492.076172" xlink:href="#DejaVuSans-112"/>
     <use x="555.552734" xlink:href="#DejaVuSans-101"/>
     <use x="617.076172" xlink:href="#DejaVuSans-110"/>
     <use x="680.455078" xlink:href="#DejaVuSans-101"/>
     <use x="741.978516" xlink:href="#DejaVuSans-116"/>
     <use x="781.1875" xlink:href="#DejaVuSans-114"/>
     <use x="822.300781" xlink:href="#DejaVuSans-97"/>
     <use x="883.580078" xlink:href="#DejaVuSans-116"/>
     <use x="922.789062" xlink:href="#DejaVuSans-105"/>
     <use x="950.572266" xlink:href="#DejaVuSans-111"/>
     <use x="1011.753906" xlink:href="#DejaVuSans-110"/>
    </g>
   </g>
   <g id="text_42">
    <!-- sklearn -->
    <defs>
     <path d="M 9.078125 75.984375 
L 18.109375 75.984375 
L 18.109375 31.109375 
L 44.921875 54.6875 
L 56.390625 54.6875 
L 27.390625 29.109375 
L 57.625 0 
L 45.90625 0 
L 18.109375 26.703125 
L 18.109375 0 
L 9.078125 0 
z
" id="DejaVuSans-107"/>
    </defs>
    <g style="opacity:0.5;" transform="translate(157.092401 246.546422)scale(0.14 -0.14)">
     <use xlink:href="#DejaVuSans-115"/>
     <use x="52.099609" xlink:href="#DejaVuSans-107"/>
     <use x="110.009766" xlink:href="#DejaVuSans-108"/>
     <use x="137.792969" xlink:href="#DejaVuSans-101"/>
     <use x="199.316406" xlink:href="#DejaVuSans-97"/>
     <use x="260.595703" xlink:href="#DejaVuSans-114"/>
     <use x="301.693359" xlink:href="#DejaVuSans-110"/>
    </g>
   </g>
   <g id="text_43">
    <!-- actian -->
    <g style="opacity:0.5;" transform="translate(306.698247 237.013551)scale(0.14 -0.14)">
     <use xlink:href="#DejaVuSans-97"/>
     <use x="61.279297" xlink:href="#DejaVuSans-99"/>
     <use x="116.259766" xlink:href="#DejaVuSans-116"/>
     <use x="155.46875" xlink:href="#DejaVuSans-105"/>
     <use x="183.251953" xlink:href="#DejaVuSans-97"/>
     <use x="244.53125" xlink:href="#DejaVuSans-110"/>
    </g>
   </g>
   <g id="text_44">
    <!-- developmentapplication -->
    <g style="opacity:0.5;" transform="translate(512.464092 150.952614)scale(0.14 -0.14)">
     <use xlink:href="#DejaVuSans-100"/>
     <use x="63.476562" xlink:href="#DejaVuSans-101"/>
     <use x="125" xlink:href="#DejaVuSans-118"/>
     <use x="184.179688" xlink:href="#DejaVuSans-101"/>
     <use x="245.703125" xlink:href="#DejaVuSans-108"/>
     <use x="273.486328" xlink:href="#DejaVuSans-111"/>
     <use x="334.667969" xlink:href="#DejaVuSans-112"/>
     <use x="398.144531" xlink:href="#DejaVuSans-109"/>
     <use x="495.556641" xlink:href="#DejaVuSans-101"/>
     <use x="557.080078" xlink:href="#DejaVuSans-110"/>
     <use x="620.458984" xlink:href="#DejaVuSans-116"/>
     <use x="659.667969" xlink:href="#DejaVuSans-97"/>
     <use x="720.947266" xlink:href="#DejaVuSans-112"/>
     <use x="784.423828" xlink:href="#DejaVuSans-112"/>
     <use x="847.900391" xlink:href="#DejaVuSans-108"/>
     <use x="875.683594" xlink:href="#DejaVuSans-105"/>
     <use x="903.466797" xlink:href="#DejaVuSans-99"/>
     <use x="958.447266" xlink:href="#DejaVuSans-97"/>
     <use x="1019.726562" xlink:href="#DejaVuSans-116"/>
     <use x="1058.935547" xlink:href="#DejaVuSans-105"/>
     <use x="1086.71875" xlink:href="#DejaVuSans-111"/>
     <use x="1147.900391" xlink:href="#DejaVuSans-110"/>
    </g>
   </g>
   <g id="text_45">
    <!-- Knowledge Graph -->
    <defs>
     <path d="M 9.8125 72.90625 
L 19.671875 72.90625 
L 19.671875 42.09375 
L 52.390625 72.90625 
L 65.09375 72.90625 
L 28.90625 38.921875 
L 67.671875 0 
L 54.6875 0 
L 19.671875 35.109375 
L 19.671875 0 
L 9.8125 0 
z
" id="DejaVuSans-75"/>
     <path d="M 4.203125 54.6875 
L 13.1875 54.6875 
L 24.421875 12.015625 
L 35.59375 54.6875 
L 46.1875 54.6875 
L 57.421875 12.015625 
L 68.609375 54.6875 
L 77.59375 54.6875 
L 63.28125 0 
L 52.6875 0 
L 40.921875 44.828125 
L 29.109375 0 
L 18.5 0 
z
" id="DejaVuSans-119"/>
     <path d="M 45.40625 27.984375 
Q 45.40625 37.75 41.375 43.109375 
Q 37.359375 48.484375 30.078125 48.484375 
Q 22.859375 48.484375 18.828125 43.109375 
Q 14.796875 37.75 14.796875 27.984375 
Q 14.796875 18.265625 18.828125 12.890625 
Q 22.859375 7.515625 30.078125 7.515625 
Q 37.359375 7.515625 41.375 12.890625 
Q 45.40625 18.265625 45.40625 27.984375 
z
M 54.390625 6.78125 
Q 54.390625 -7.171875 48.1875 -13.984375 
Q 42 -20.796875 29.203125 -20.796875 
Q 24.46875 -20.796875 20.265625 -20.09375 
Q 16.0625 -19.390625 12.109375 -17.921875 
L 12.109375 -9.1875 
Q 16.0625 -11.328125 19.921875 -12.34375 
Q 23.78125 -13.375 27.78125 -13.375 
Q 36.625 -13.375 41.015625 -8.765625 
Q 45.40625 -4.15625 45.40625 5.171875 
L 45.40625 9.625 
Q 42.625 4.78125 38.28125 2.390625 
Q 33.9375 0 27.875 0 
Q 17.828125 0 11.671875 7.65625 
Q 5.515625 15.328125 5.515625 27.984375 
Q 5.515625 40.671875 11.671875 48.328125 
Q 17.828125 56 27.875 56 
Q 33.9375 56 38.28125 53.609375 
Q 42.625 51.21875 45.40625 46.390625 
L 45.40625 54.6875 
L 54.390625 54.6875 
z
" id="DejaVuSans-103"/>
     <path id="DejaVuSans-32"/>
     <path d="M 59.515625 10.40625 
L 59.515625 29.984375 
L 43.40625 29.984375 
L 43.40625 38.09375 
L 69.28125 38.09375 
L 69.28125 6.78125 
Q 63.578125 2.734375 56.6875 0.65625 
Q 49.8125 -1.421875 42 -1.421875 
Q 24.90625 -1.421875 15.25 8.5625 
Q 5.609375 18.5625 5.609375 36.375 
Q 5.609375 54.25 15.25 64.234375 
Q 24.90625 74.21875 42 74.21875 
Q 49.125 74.21875 55.546875 72.453125 
Q 61.96875 70.703125 67.390625 67.28125 
L 67.390625 56.78125 
Q 61.921875 61.421875 55.765625 63.765625 
Q 49.609375 66.109375 42.828125 66.109375 
Q 29.4375 66.109375 22.71875 58.640625 
Q 16.015625 51.171875 16.015625 36.375 
Q 16.015625 21.625 22.71875 14.15625 
Q 29.4375 6.6875 42.828125 6.6875 
Q 48.046875 6.6875 52.140625 7.59375 
Q 56.25 8.5 59.515625 10.40625 
z
" id="DejaVuSans-71"/>
    </defs>
    <g transform="translate(537.105 71.76)scale(0.12 -0.12)">
     <use xlink:href="#DejaVuSans-75"/>
     <use x="65.576172" xlink:href="#DejaVuSans-110"/>
     <use x="128.955078" xlink:href="#DejaVuSans-111"/>
     <use x="190.136719" xlink:href="#DejaVuSans-119"/>
     <use x="271.923828" xlink:href="#DejaVuSans-108"/>
     <use x="299.707031" xlink:href="#DejaVuSans-101"/>
     <use x="361.230469" xlink:href="#DejaVuSans-100"/>
     <use x="424.707031" xlink:href="#DejaVuSans-103"/>
     <use x="488.183594" xlink:href="#DejaVuSans-101"/>
     <use x="549.707031" xlink:href="#DejaVuSans-32"/>
     <use x="581.494141" xlink:href="#DejaVuSans-71"/>
     <use x="658.984375" xlink:href="#DejaVuSans-114"/>
     <use x="700.097656" xlink:href="#DejaVuSans-97"/>
     <use x="761.376953" xlink:href="#DejaVuSans-112"/>
     <use x="824.853516" xlink:href="#DejaVuSans-104"/>
    </g>
   </g>
   <g id="legend_1">
    <g id="patch_7">
     <path d="M 980.389062 571.72 
L 1029.8 571.72 
Q 1031.8 571.72 1031.8 569.72 
L 1031.8 556.041875 
Q 1031.8 554.041875 1029.8 554.041875 
L 980.389062 554.041875 
Q 978.389062 554.041875 978.389062 556.041875 
L 978.389062 569.72 
Q 978.389062 571.72 980.389062 571.72 
z
" style="fill:#ffffff;opacity:0.8;stroke:#cccccc;stroke-linejoin:miter;"/>
    </g>
    <g id="PathCollection_2">
     <g>
      <use style="fill:#8000ff;fill-opacity:0.7;stroke:#8000ff;stroke-opacity:0.7;" x="992.389062" xlink:href="#m15e8793e9f" y="563.015313"/>
     </g>
    </g>
    <g id="text_46">
     <!-- ['r'] -->
     <defs>
      <path d="M 8.59375 75.984375 
L 29.296875 75.984375 
L 29.296875 69 
L 17.578125 69 
L 17.578125 -6.203125 
L 29.296875 -6.203125 
L 29.296875 -13.1875 
L 8.59375 -13.1875 
z
" id="DejaVuSans-91"/>
      <path d="M 17.921875 72.90625 
L 17.921875 45.796875 
L 9.625 45.796875 
L 9.625 72.90625 
z
" id="DejaVuSans-39"/>
      <path d="M 30.421875 75.984375 
L 30.421875 -13.1875 
L 9.71875 -13.1875 
L 9.71875 -6.203125 
L 21.390625 -6.203125 
L 21.390625 69 
L 9.71875 69 
L 9.71875 75.984375 
z
" id="DejaVuSans-93"/>
     </defs>
     <g transform="translate(1010.389062 565.640313)scale(0.1 -0.1)">
      <use xlink:href="#DejaVuSans-91"/>
      <use x="39.013672" xlink:href="#DejaVuSans-39"/>
      <use x="66.503906" xlink:href="#DejaVuSans-114"/>
      <use x="107.617188" xlink:href="#DejaVuSans-39"/>
      <use x="135.107422" xlink:href="#DejaVuSans-93"/>
     </g>
    </g>
   </g>
  </g>
 </g>
 <defs>
  <clipPath id="p3e9dc08273">
   <rect height="498.96" width="892.8" x="144" y="77.76"/>
  </clipPath>
 </defs>
</svg>
